<svg width="50" height="50" viewBox="0 0 50 50" fill="none" xmlns="http://www.w3.org/2000/svg">
<g clip-path="url(#clip0_2007_168)">
<path d="M47.5937 14.2851C47.4201 13.9197 46.9829 13.7642 46.6179 13.9378C46.2525 14.1114 46.097 14.5483 46.2705 14.9137C47.7733 18.0769 48.5352 21.4704 48.5352 25C48.5352 31.2866 46.0871 37.1967 41.6419 41.6419C37.1968 46.0871 31.2865 48.5352 25 48.5352C21.2718 48.5352 17.7063 47.6891 14.403 46.0204C11.6506 44.63 9.16396 42.678 7.14482 40.3323L10.0346 41.2955C10.4183 41.4235 10.8331 41.2161 10.961 40.8323C11.089 40.4485 10.8815 40.0337 10.4977 39.9058L5.29755 38.1724C5.05673 38.0922 4.7915 38.1422 4.59667 38.3049C4.40185 38.4676 4.30507 38.7196 4.34091 38.9708L5.20761 45.0377C5.25985 45.4031 5.57314 45.6666 5.93183 45.6666C5.9663 45.6666 6.00116 45.6642 6.03632 45.6592C6.43681 45.602 6.71503 45.231 6.65781 44.8306L6.17421 41.4455C8.29326 43.8655 10.8819 45.8828 13.7427 47.328C17.2526 49.101 21.0401 50 25 50C31.6777 50 37.9559 47.3995 42.6777 42.6778C47.3995 37.9558 50 31.6778 50 25C50 21.2513 49.1904 17.6463 47.5937 14.2851Z" fill="#272343"/>
<path d="M45.6592 11.0293L44.7925 4.9624C44.7353 4.56191 44.3634 4.28389 43.9639 4.34092C43.5634 4.39814 43.2852 4.76914 43.3424 5.16953L43.8255 8.55117C39.0691 3.10156 32.2791 0 25 0C18.3223 0 12.0442 2.60049 7.32227 7.32227C2.60049 12.0442 0 18.3223 0 25C0 28.7488 0.809668 32.3539 2.40635 35.7149C2.53174 35.9789 2.79443 36.1333 3.06846 36.1333C3.17373 36.1333 3.28076 36.1105 3.38223 36.0622C3.74756 35.8887 3.90303 35.4518 3.72949 35.0863C2.22676 31.9233 1.46484 28.5298 1.46484 25C1.46484 18.7135 3.91289 12.8033 8.35811 8.35811C12.8033 3.91289 18.7135 1.46484 25 1.46484C31.9195 1.46484 38.3694 4.44277 42.8531 9.66709L39.9655 8.70459C39.5815 8.57646 39.1669 8.78408 39.0391 9.16787C38.9112 9.55166 39.1185 9.96641 39.5022 10.0943L44.7024 11.8277C44.7782 11.8529 44.8563 11.8653 44.934 11.8653C45.1031 11.8653 45.2697 11.8067 45.4034 11.6952C45.5982 11.5325 45.695 11.2806 45.6592 11.0293Z" fill="#272343"/>
<path d="M22.9646 32.8787H15.597C15.8912 30.3152 17.7128 28.5953 19.6318 26.7834C21.6304 24.8963 23.697 22.9449 23.697 20.0147C23.697 17.6116 21.5423 15.6566 18.8939 15.6566C16.2454 15.6566 14.0908 17.6116 14.0908 20.0147C14.0908 20.4192 14.4187 20.7471 14.8232 20.7471C15.2277 20.7471 15.5556 20.4192 15.5556 20.0147C15.5556 18.4193 17.0531 17.1214 18.8939 17.1214C20.7347 17.1214 22.2322 18.4193 22.2322 20.0147C22.2322 22.3135 20.4805 23.9674 18.6261 25.7184C16.5002 27.7256 14.0908 30.0007 14.0908 33.6111C14.0908 34.0156 14.4187 34.3436 14.8232 34.3436H22.9646C23.3691 34.3436 23.697 34.0156 23.697 33.6111C23.697 33.2067 23.3691 32.8787 22.9646 32.8787Z" fill="#272343"/>
<path d="M35.1767 28.1817H34.3435V16.389C34.3435 15.9845 34.0157 15.6566 33.6111 15.6566C33.2065 15.6566 32.8787 15.9845 32.8787 16.389V28.1817H26.6654L28.8511 16.524C28.9257 16.1265 28.6638 15.7437 28.2662 15.6692C27.8691 15.595 27.4861 15.8565 27.4115 16.254L25.063 28.7792C25.0229 28.9934 25.0801 29.2143 25.2193 29.3819C25.3584 29.5496 25.565 29.6466 25.7828 29.6466H32.8787V33.6111C32.8787 34.0155 33.2065 34.3435 33.6111 34.3435C34.0157 34.3435 34.3435 34.0155 34.3435 33.611V29.6465H35.1767C35.5813 29.6465 35.9091 29.3186 35.9091 28.9141C35.9091 28.5096 35.5813 28.1817 35.1767 28.1817Z" fill="#272343"/>
<path d="M25 3.91412C24.5955 3.91412 24.2676 4.24205 24.2676 4.64655V7.77779C24.2676 8.18229 24.5955 8.51022 25 8.51022C25.4046 8.51022 25.7324 8.18229 25.7324 7.77779V4.64655C25.7324 4.24205 25.4046 3.91412 25 3.91412Z" fill="#272343"/>
<path d="M25 41.4897C24.5955 41.4897 24.2676 41.8177 24.2676 42.2222V45.3534C24.2676 45.7579 24.5955 46.0858 25 46.0858C25.4046 46.0858 25.7324 45.7579 25.7324 45.3534V42.2222C25.7324 41.8177 25.4046 41.4897 25 41.4897Z" fill="#272343"/>
<path d="M45.3533 24.2676H42.222C41.8175 24.2676 41.4896 24.5955 41.4896 25C41.4896 25.4045 41.8175 25.7324 42.222 25.7324H45.3533C45.7579 25.7324 46.0857 25.4045 46.0857 25C46.0857 24.5955 45.7579 24.2676 45.3533 24.2676Z" fill="#272343"/>
<path d="M7.77779 24.2676H4.64655C4.24205 24.2676 3.91412 24.5955 3.91412 25C3.91412 25.4045 4.24205 25.7324 4.64655 25.7324H7.77779C8.18229 25.7324 8.51022 25.4045 8.51022 25C8.51022 24.5955 8.18229 24.2676 7.77779 24.2676Z" fill="#272343"/>
</g>
<defs>
<clipPath id="clip0_2007_168">
<rect width="50" height="50" fill="white"/>
</clipPath>
</defs>
</svg>
