<svg width="15" height="19" viewBox="0 0 15 19" fill="none" xmlns="http://www.w3.org/2000/svg">
<path fill-rule="evenodd" clip-rule="evenodd" d="M7.5725 12.4877C4.02683 12.4877 1 13.0239 1 15.1708C1 17.3176 4.00758 17.8731 7.5725 17.8731C11.1172 17.8731 14.145 17.3359 14.145 15.19C14.145 13.0441 11.1365 12.4877 7.5725 12.4877V12.4877Z" stroke="#272343" stroke-width="1.5" stroke-linecap="round" stroke-linejoin="round"/>
<path fill-rule="evenodd" clip-rule="evenodd" d="M7.57252 9.426C8.40578 9.426 9.22032 9.17891 9.91314 8.71598C10.606 8.25305 11.146 7.59507 11.4648 6.82525C11.7837 6.05542 11.8671 5.20833 11.7046 4.39109C11.542 3.57384 11.1408 2.82316 10.5516 2.23396C9.96236 1.64476 9.21168 1.24351 8.39444 1.08095C7.5772 0.918394 6.7301 1.00183 5.96028 1.3207C5.19045 1.63957 4.53247 2.17956 4.06954 2.87238C3.60661 3.56521 3.35952 4.37975 3.35952 5.213C3.35563 6.32631 3.79409 7.39559 4.57848 8.18565C5.36288 8.97572 6.42896 9.42188 7.54227 9.426H7.57252Z" stroke="#272343" stroke-width="1.429" stroke-linecap="round" stroke-linejoin="round"/>
</svg>
